<?xml version="1.0" encoding="UTF-8" standalone="no"?>
<!DOCTYPE svg PUBLIC "-//W3C//DTD SVG 1.1//EN" "http://www.w3.org/Graphics/SVG/1.1/DTD/svg11.dtd">
<svg width="100%" height="100%" viewBox="0 0 2048 2048" version="1.1" xmlns="http://www.w3.org/2000/svg" xmlns:xlink="http://www.w3.org/1999/xlink" xml:space="preserve" xmlns:serif="http://www.serif.com/" style="fill-rule:evenodd;clip-rule:evenodd;stroke-miterlimit:1.5;">
    <g transform="matrix(1,0,0,1,-4352,0)">
        <g id="final" transform="matrix(1,0,0,1,4352,0)">
            <rect x="0" y="0" width="2048" height="2048" style="fill:none;"/>
            <circle cx="1024" cy="1024" r="992" style="fill:none;stroke:black;stroke-width:33.33px;"/>
            <g transform="matrix(0.741935,0,0,0.741935,264.258065,264.258065)">
                <circle cx="1024" cy="1024" r="992" style="fill:none;stroke:black;stroke-width:44.93px;"/>
            </g>
            <g>
                <g transform="matrix(0.78342,-0.621493,0.621493,0.78342,-178.632221,384.494612)">
                    <g transform="matrix(200,0,0,200,462.351903,448.546561)">
                        <path d="M0.405,-0.7C0.484,-0.7 0.552,-0.686 0.609,-0.658C0.666,-0.63 0.71,-0.589 0.742,-0.537C0.773,-0.484 0.788,-0.422 0.788,-0.35C0.788,-0.278 0.773,-0.216 0.742,-0.163C0.71,-0.111 0.666,-0.071 0.609,-0.042C0.552,-0.014 0.484,-0 0.405,-0L0.167,-0L0.166,-0.042L0.393,-0.042C0.441,-0.042 0.482,-0.055 0.517,-0.08C0.552,-0.105 0.578,-0.14 0.597,-0.186C0.616,-0.232 0.625,-0.287 0.625,-0.35C0.625,-0.413 0.616,-0.468 0.597,-0.514C0.578,-0.56 0.552,-0.595 0.517,-0.62C0.482,-0.645 0.441,-0.658 0.393,-0.658L0.156,-0.658L0.156,-0.7L0.405,-0.7ZM0.269,-0.7L0.269,-0L0.119,-0L0.119,-0.7L0.269,-0.7ZM0.122,-0.073L0.122,-0L0.042,-0L0.042,-0.01L0.055,-0.01C0.072,-0.01 0.087,-0.016 0.099,-0.029C0.112,-0.041 0.118,-0.056 0.119,-0.073L0.122,-0.073ZM0.122,-0.627L0.119,-0.627C0.119,-0.644 0.112,-0.659 0.1,-0.671C0.087,-0.684 0.072,-0.69 0.055,-0.69L0.043,-0.69L0.042,-0.7L0.122,-0.7L0.122,-0.627Z" style="fill-rule:nonzero;"/>
                    </g>
                </g>
                <g transform="matrix(0.911721,-0.41081,0.41081,0.911721,-75.566331,289.990722)">
                    <g transform="matrix(200,0,0,200,636.958873,320.820919)">
                        <path d="M0.269,-0.7L0.269,-0L0.119,-0L0.119,-0.7L0.269,-0.7ZM0.533,-0.043L0.557,-0L0.266,-0L0.266,-0.043L0.533,-0.043ZM0.496,-0.366L0.496,-0.324L0.266,-0.324L0.266,-0.366L0.496,-0.366ZM0.545,-0.7L0.545,-0.657L0.266,-0.657L0.266,-0.7L0.545,-0.7ZM0.606,-0.205L0.56,-0L0.364,-0L0.4,-0.043C0.433,-0.043 0.462,-0.05 0.488,-0.063C0.514,-0.076 0.535,-0.094 0.553,-0.119C0.571,-0.143 0.586,-0.171 0.596,-0.205L0.606,-0.205ZM0.496,-0.326L0.496,-0.23L0.486,-0.23L0.486,-0.239C0.486,-0.263 0.478,-0.283 0.462,-0.299C0.446,-0.315 0.426,-0.324 0.401,-0.324L0.401,-0.326L0.496,-0.326ZM0.496,-0.46L0.496,-0.364L0.401,-0.364L0.401,-0.366C0.426,-0.367 0.446,-0.375 0.462,-0.392C0.478,-0.408 0.486,-0.428 0.486,-0.453L0.486,-0.46L0.496,-0.46ZM0.545,-0.66L0.545,-0.543L0.535,-0.543L0.535,-0.555C0.535,-0.586 0.526,-0.61 0.508,-0.629C0.489,-0.648 0.465,-0.657 0.433,-0.658L0.433,-0.66L0.545,-0.66ZM0.545,-0.718L0.545,-0.689L0.423,-0.7C0.438,-0.7 0.453,-0.701 0.469,-0.703C0.486,-0.705 0.501,-0.707 0.515,-0.71C0.529,-0.713 0.539,-0.715 0.545,-0.718ZM0.122,-0.073L0.122,-0L0.042,-0L0.042,-0.01L0.055,-0.01C0.072,-0.01 0.087,-0.016 0.099,-0.029C0.112,-0.041 0.118,-0.056 0.119,-0.073L0.122,-0.073ZM0.122,-0.627L0.119,-0.627C0.118,-0.644 0.112,-0.659 0.099,-0.671C0.087,-0.684 0.072,-0.69 0.055,-0.69L0.042,-0.69L0.042,-0.7L0.122,-0.7L0.122,-0.627Z" style="fill-rule:nonzero;"/>
                    </g>
                </g>
                <g transform="matrix(0.982971,-0.183758,0.183758,0.982971,-32.664116,151.299378)">
                    <g transform="matrix(200,0,0,200,800.018427,251.892101)">
                        <path d="M0.722,-0.292L0.731,-0.12C0.716,-0.095 0.697,-0.073 0.672,-0.053C0.647,-0.033 0.617,-0.016 0.58,-0.004C0.544,0.008 0.5,0.014 0.45,0.014C0.369,0.013 0.298,-0.001 0.237,-0.03C0.175,-0.059 0.128,-0.101 0.095,-0.155C0.062,-0.209 0.045,-0.275 0.045,-0.351C0.045,-0.426 0.061,-0.49 0.094,-0.545C0.127,-0.599 0.174,-0.641 0.235,-0.67C0.296,-0.699 0.369,-0.714 0.453,-0.714C0.507,-0.714 0.554,-0.709 0.597,-0.698C0.639,-0.687 0.674,-0.674 0.703,-0.659L0.704,-0.488L0.695,-0.488C0.677,-0.554 0.648,-0.601 0.607,-0.629C0.566,-0.658 0.518,-0.672 0.464,-0.672C0.411,-0.672 0.365,-0.659 0.327,-0.633C0.289,-0.607 0.259,-0.571 0.239,-0.523C0.218,-0.476 0.208,-0.419 0.208,-0.353C0.208,-0.287 0.218,-0.23 0.238,-0.182C0.257,-0.134 0.285,-0.097 0.322,-0.07C0.358,-0.043 0.401,-0.029 0.45,-0.028C0.502,-0.028 0.545,-0.036 0.58,-0.053C0.616,-0.07 0.644,-0.097 0.666,-0.136C0.687,-0.175 0.703,-0.227 0.714,-0.292L0.722,-0.292Z" style="fill-rule:nonzero;"/>
                    </g>
                </g>
                <g transform="matrix(0.999745,0.022591,-0.022591,0.999745,5.301323,-22.615747)">
                    <g transform="matrix(200,0,0,200,1003.63774,223.33199)">
                        <path d="M0.269,-0.7L0.269,-0L0.119,-0L0.119,-0.7L0.269,-0.7ZM0.122,-0.073L0.122,-0L0.042,-0L0.042,-0.01L0.055,-0.01C0.072,-0.01 0.087,-0.016 0.099,-0.029C0.112,-0.041 0.118,-0.056 0.119,-0.073L0.122,-0.073ZM0.122,-0.627L0.119,-0.627C0.118,-0.644 0.112,-0.659 0.099,-0.671C0.087,-0.684 0.072,-0.69 0.055,-0.69L0.042,-0.69L0.042,-0.7L0.122,-0.7L0.122,-0.627ZM0.266,-0.073L0.269,-0.073C0.269,-0.056 0.276,-0.041 0.288,-0.029C0.301,-0.016 0.315,-0.01 0.333,-0.01L0.346,-0.01L0.346,-0L0.266,-0L0.266,-0.073ZM0.266,-0.627L0.266,-0.7L0.346,-0.7L0.346,-0.69L0.333,-0.69C0.315,-0.69 0.301,-0.684 0.288,-0.671C0.276,-0.659 0.269,-0.644 0.269,-0.627L0.266,-0.627Z" style="fill-rule:nonzero;"/>
                    </g>
                </g>
                <g transform="matrix(0.978782,0.204904,-0.204904,0.978782,70.909669,-226.904536)">
                    <g transform="matrix(200,0,0,200,1131.076394,228.939132)">
                        <path d="M0.269,-0.7L0.269,-0L0.119,-0L0.119,-0.7L0.269,-0.7ZM0.496,-0.366L0.496,-0.324L0.266,-0.324L0.266,-0.366L0.496,-0.366ZM0.545,-0.7L0.545,-0.657L0.266,-0.657L0.266,-0.7L0.545,-0.7ZM0.496,-0.326L0.496,-0.23L0.486,-0.23L0.486,-0.239C0.486,-0.263 0.478,-0.283 0.462,-0.299C0.446,-0.315 0.426,-0.324 0.401,-0.324L0.401,-0.326L0.496,-0.326ZM0.496,-0.46L0.496,-0.364L0.401,-0.364L0.401,-0.366C0.426,-0.367 0.446,-0.375 0.462,-0.392C0.478,-0.408 0.486,-0.428 0.486,-0.453L0.486,-0.46L0.496,-0.46ZM0.545,-0.66L0.545,-0.549L0.535,-0.549L0.535,-0.559C0.535,-0.589 0.526,-0.612 0.509,-0.63C0.491,-0.648 0.467,-0.657 0.437,-0.657L0.437,-0.66L0.545,-0.66ZM0.545,-0.718L0.545,-0.689L0.423,-0.7C0.438,-0.7 0.453,-0.701 0.469,-0.703C0.486,-0.705 0.501,-0.707 0.515,-0.71C0.529,-0.713 0.539,-0.715 0.545,-0.718ZM0.122,-0.073L0.122,-0L0.042,-0L0.042,-0.01L0.055,-0.01C0.072,-0.01 0.087,-0.016 0.099,-0.029C0.112,-0.041 0.118,-0.056 0.119,-0.073L0.122,-0.073ZM0.122,-0.627L0.119,-0.627C0.118,-0.644 0.112,-0.659 0.099,-0.671C0.087,-0.684 0.072,-0.69 0.055,-0.69L0.042,-0.69L0.042,-0.7L0.122,-0.7L0.122,-0.627ZM0.266,-0.073L0.269,-0.073C0.269,-0.056 0.276,-0.041 0.288,-0.029C0.301,-0.016 0.315,-0.01 0.333,-0.01L0.346,-0.01L0.346,-0L0.266,-0L0.266,-0.073Z" style="fill-rule:nonzero;"/>
                    </g>
                </g>
                <g transform="matrix(0.90027,0.435333,-0.435333,0.90027,245.551498,-537.766045)">
                    <g transform="matrix(200,0,0,200,1296.476211,267.045026)">
                        <path d="M0.259,-0.7L0.388,-0.7C0.418,-0.7 0.448,-0.697 0.476,-0.69C0.505,-0.683 0.53,-0.673 0.553,-0.658C0.575,-0.643 0.593,-0.624 0.606,-0.6C0.619,-0.576 0.626,-0.546 0.626,-0.511C0.626,-0.483 0.62,-0.456 0.608,-0.428C0.597,-0.4 0.579,-0.376 0.555,-0.356C0.531,-0.337 0.5,-0.325 0.462,-0.321C0.483,-0.314 0.503,-0.302 0.521,-0.285C0.538,-0.268 0.553,-0.25 0.564,-0.233C0.565,-0.232 0.569,-0.226 0.576,-0.215C0.582,-0.204 0.591,-0.191 0.601,-0.175C0.612,-0.16 0.623,-0.144 0.634,-0.128C0.645,-0.112 0.655,-0.098 0.665,-0.086C0.679,-0.068 0.693,-0.053 0.705,-0.042C0.717,-0.031 0.73,-0.023 0.743,-0.018C0.756,-0.013 0.771,-0.01 0.789,-0.01L0.789,-0L0.691,-0C0.655,-0 0.622,-0.003 0.593,-0.01C0.563,-0.016 0.537,-0.027 0.515,-0.042C0.492,-0.057 0.473,-0.078 0.456,-0.104C0.451,-0.112 0.445,-0.122 0.439,-0.135C0.432,-0.147 0.426,-0.16 0.419,-0.174C0.412,-0.188 0.406,-0.201 0.399,-0.214C0.393,-0.227 0.388,-0.239 0.383,-0.25C0.379,-0.261 0.375,-0.269 0.373,-0.275C0.364,-0.296 0.354,-0.312 0.342,-0.323C0.33,-0.334 0.318,-0.34 0.305,-0.342L0.305,-0.352C0.307,-0.352 0.311,-0.352 0.317,-0.352C0.323,-0.352 0.329,-0.352 0.336,-0.352C0.354,-0.352 0.372,-0.356 0.389,-0.363C0.406,-0.37 0.421,-0.382 0.434,-0.399C0.447,-0.415 0.457,-0.438 0.462,-0.468C0.463,-0.474 0.464,-0.481 0.465,-0.489C0.466,-0.497 0.466,-0.506 0.466,-0.516C0.464,-0.564 0.452,-0.599 0.43,-0.621C0.408,-0.643 0.381,-0.655 0.348,-0.656C0.338,-0.656 0.328,-0.657 0.317,-0.656C0.306,-0.656 0.296,-0.656 0.288,-0.656L0.269,-0.656C0.269,-0.657 0.269,-0.66 0.267,-0.667C0.265,-0.675 0.259,-0.7 0.259,-0.7ZM0.272,-0.7L0.272,-0L0.122,-0L0.122,-0.7L0.272,-0.7ZM0.125,-0.073L0.125,-0L0.045,-0L0.045,-0.01L0.058,-0.01C0.075,-0.01 0.09,-0.016 0.102,-0.029C0.115,-0.041 0.121,-0.056 0.122,-0.073L0.125,-0.073ZM0.125,-0.627L0.122,-0.627C0.121,-0.644 0.115,-0.659 0.102,-0.671C0.09,-0.684 0.075,-0.69 0.058,-0.69L0.045,-0.69L0.045,-0.7L0.125,-0.7L0.125,-0.627ZM0.269,-0.073L0.272,-0.073C0.272,-0.056 0.279,-0.041 0.291,-0.029C0.304,-0.016 0.319,-0.01 0.336,-0.01L0.348,-0.01L0.348,-0L0.269,-0L0.269,-0.073Z" style="fill-rule:nonzero;"/>
                    </g>
                </g>
                <g transform="matrix(0.774528,0.632539,-0.632539,0.774528,559.251246,-851.445145)">
                    <g transform="matrix(200,0,0,200,1473.949649,358.740412)">
                        <path d="M0.354,-0.72L0.68,-0.006L0.501,-0.006L0.293,-0.527L0.354,-0.72ZM0.139,-0.073C0.134,-0.06 0.133,-0.048 0.136,-0.039C0.139,-0.03 0.145,-0.023 0.153,-0.018C0.161,-0.013 0.169,-0.01 0.177,-0.01L0.186,-0.01L0.186,-0L-0.028,-0L-0.028,-0.01L-0.019,-0.01C-0.004,-0.01 0.012,-0.015 0.028,-0.025C0.045,-0.034 0.058,-0.05 0.069,-0.073L0.139,-0.073ZM0.354,-0.72L0.358,-0.598L0.11,-0.003L0.037,-0.003L0.296,-0.589C0.298,-0.593 0.301,-0.6 0.306,-0.611C0.311,-0.623 0.317,-0.635 0.322,-0.649C0.328,-0.663 0.333,-0.677 0.338,-0.69C0.342,-0.703 0.345,-0.713 0.345,-0.72L0.354,-0.72ZM0.459,-0.238L0.459,-0.196L0.165,-0.196L0.165,-0.238L0.459,-0.238ZM0.474,-0.073L0.649,-0.073C0.66,-0.05 0.674,-0.034 0.69,-0.025C0.706,-0.015 0.722,-0.01 0.737,-0.01L0.745,-0.01L0.745,-0L0.427,-0L0.427,-0.01L0.436,-0.01C0.449,-0.01 0.461,-0.015 0.471,-0.026C0.481,-0.037 0.482,-0.053 0.474,-0.073Z" style="fill-rule:nonzero;"/>
                    </g>
                </g>
            </g>
            <g transform="matrix(1,0,0,1,32,32)">
                <g transform="matrix(0.776648,0.629935,-0.629935,0.776648,1120.903428,155.729091)">
                    <g transform="matrix(200,0,0,200,340.845131,1658.543981)">
                        <path d="M0.108,-0.715L0.746,-0.107L0.758,0.014L0.12,-0.593L0.108,-0.715ZM0.113,-0.071L0.113,-0L0.03,-0L0.03,-0.01L0.049,-0.01C0.065,-0.01 0.08,-0.016 0.092,-0.028C0.104,-0.04 0.11,-0.054 0.11,-0.071L0.113,-0.071ZM0.253,-0.071C0.253,-0.054 0.259,-0.04 0.271,-0.028C0.283,-0.016 0.297,-0.01 0.314,-0.01L0.333,-0.01L0.333,-0L0.25,-0L0.25,-0.071L0.253,-0.071ZM0.108,-0.715L0.252,-0.562L0.253,-0L0.11,-0L0.11,-0.59C0.11,-0.627 0.108,-0.657 0.104,-0.68C0.1,-0.703 0.098,-0.715 0.098,-0.715L0.108,-0.715ZM0.755,-0.7L0.755,-0.114C0.755,-0.089 0.756,-0.067 0.758,-0.047C0.76,-0.028 0.762,-0.013 0.764,-0.002C0.766,0.009 0.767,0.014 0.767,0.014L0.758,0.014L0.613,-0.148L0.613,-0.7L0.755,-0.7ZM0.835,-0.7L0.835,-0.69L0.817,-0.69C0.801,-0.69 0.786,-0.684 0.774,-0.672C0.762,-0.661 0.756,-0.646 0.755,-0.629L0.752,-0.629L0.752,-0.7L0.835,-0.7ZM0.532,-0.7L0.615,-0.7L0.615,-0.629L0.613,-0.629C0.613,-0.646 0.606,-0.661 0.595,-0.672C0.583,-0.684 0.569,-0.69 0.551,-0.69L0.532,-0.69L0.532,-0.7Z" style="fill-rule:nonzero;"/>
                    </g>
                </g>
                <g transform="matrix(0.897099,0.441829,-0.441829,0.897099,845.710462,-44.561285)">
                    <g transform="matrix(200,0,0,200,518.522557,1793.350551)">
                        <path d="M0.354,-0.72L0.68,-0.006L0.501,-0.006L0.293,-0.527L0.354,-0.72ZM0.139,-0.073C0.134,-0.06 0.133,-0.048 0.136,-0.039C0.139,-0.03 0.145,-0.023 0.153,-0.018C0.161,-0.013 0.169,-0.01 0.177,-0.01L0.186,-0.01L0.186,-0L-0.028,-0L-0.028,-0.01L-0.019,-0.01C-0.004,-0.01 0.012,-0.015 0.028,-0.025C0.045,-0.034 0.058,-0.05 0.069,-0.073L0.139,-0.073ZM0.354,-0.72L0.358,-0.598L0.11,-0.003L0.037,-0.003L0.296,-0.589C0.298,-0.593 0.301,-0.6 0.306,-0.611C0.311,-0.623 0.317,-0.635 0.322,-0.649C0.328,-0.663 0.333,-0.677 0.338,-0.69C0.342,-0.703 0.345,-0.713 0.345,-0.72L0.354,-0.72ZM0.459,-0.238L0.459,-0.196L0.165,-0.196L0.165,-0.238L0.459,-0.238ZM0.474,-0.073L0.649,-0.073C0.66,-0.05 0.674,-0.034 0.69,-0.025C0.706,-0.015 0.722,-0.01 0.737,-0.01L0.745,-0.01L0.745,-0L0.427,-0L0.427,-0.01L0.436,-0.01C0.449,-0.01 0.461,-0.015 0.471,-0.026C0.481,-0.037 0.482,-0.053 0.474,-0.073Z" style="fill-rule:nonzero;"/>
                    </g>
                </g>
                <g transform="matrix(0.968204,0.250161,-0.250161,0.968204,490.866355,-114.24646)">
                    <g transform="matrix(200,0,0,200,694.864531,1873.883907)">
                        <path d="M0.409,-0.697L0.409,-0L0.259,-0L0.259,-0.697L0.409,-0.697ZM0.654,-0.701L0.654,-0.659L0.014,-0.659L0.014,-0.701L0.654,-0.701ZM0.654,-0.662L0.654,-0.544L0.644,-0.545L0.644,-0.556C0.644,-0.587 0.634,-0.612 0.616,-0.63C0.598,-0.649 0.573,-0.658 0.542,-0.659L0.542,-0.662L0.654,-0.662ZM0.654,-0.719L0.654,-0.69L0.532,-0.701C0.546,-0.701 0.562,-0.702 0.578,-0.704C0.594,-0.706 0.61,-0.708 0.624,-0.711C0.638,-0.714 0.648,-0.716 0.654,-0.719ZM0.262,-0.073L0.262,-0L0.182,-0L0.182,-0.01L0.195,-0.01C0.212,-0.01 0.227,-0.016 0.239,-0.029C0.252,-0.041 0.258,-0.056 0.259,-0.073L0.262,-0.073ZM0.406,-0.073L0.409,-0.073C0.409,-0.056 0.416,-0.041 0.428,-0.029C0.441,-0.016 0.455,-0.01 0.473,-0.01L0.486,-0.01L0.486,-0L0.406,-0L0.406,-0.073ZM0.125,-0.662L0.125,-0.659C0.094,-0.658 0.069,-0.649 0.051,-0.63C0.033,-0.612 0.024,-0.587 0.024,-0.556L0.024,-0.545L0.014,-0.544L0.014,-0.662L0.125,-0.662ZM0.014,-0.719C0.021,-0.716 0.031,-0.714 0.044,-0.711C0.058,-0.708 0.073,-0.706 0.09,-0.704C0.107,-0.702 0.122,-0.701 0.136,-0.701L0.014,-0.69L0.014,-0.719Z" style="fill-rule:nonzero;"/>
                    </g>
                </g>
                <g transform="matrix(0.999276,0.038035,-0.038035,0.999276,73.51375,-31.835593)">
                    <g transform="matrix(200,0,0,200,873.460322,1916.171456)">
                        <path d="M0.257,-0.7L0.257,-0.26C0.257,-0.213 0.265,-0.172 0.281,-0.137C0.296,-0.103 0.319,-0.076 0.348,-0.057C0.377,-0.038 0.411,-0.029 0.451,-0.029C0.492,-0.029 0.527,-0.038 0.556,-0.056C0.586,-0.073 0.609,-0.099 0.625,-0.131C0.641,-0.164 0.649,-0.202 0.649,-0.247L0.649,-0.7L0.721,-0.7L0.721,-0.253C0.721,-0.199 0.709,-0.151 0.686,-0.111C0.663,-0.071 0.63,-0.04 0.587,-0.019C0.544,0.003 0.492,0.014 0.432,0.014C0.361,0.014 0.301,0.003 0.253,-0.018C0.204,-0.04 0.168,-0.071 0.143,-0.111C0.119,-0.151 0.107,-0.198 0.107,-0.252L0.107,-0.7L0.257,-0.7ZM0.11,-0.7L0.11,-0.64L0.107,-0.64C0.107,-0.655 0.102,-0.667 0.091,-0.676C0.081,-0.685 0.069,-0.69 0.054,-0.69L0.038,-0.69L0.038,-0.7L0.11,-0.7ZM0.326,-0.7L0.326,-0.69L0.31,-0.69C0.295,-0.69 0.283,-0.685 0.272,-0.676C0.262,-0.667 0.257,-0.655 0.257,-0.64L0.255,-0.64L0.255,-0.7L0.326,-0.7ZM0.652,-0.7L0.652,-0.64L0.649,-0.64C0.649,-0.655 0.644,-0.667 0.634,-0.676C0.624,-0.685 0.611,-0.69 0.596,-0.69L0.58,-0.69L0.58,-0.7L0.652,-0.7ZM0.79,-0.7L0.79,-0.69L0.774,-0.69C0.759,-0.69 0.746,-0.685 0.736,-0.676C0.726,-0.667 0.721,-0.655 0.721,-0.64L0.719,-0.64L0.719,-0.7L0.79,-0.7Z" style="fill-rule:nonzero;"/>
                    </g>
                </g>
                <g transform="matrix(0.981575,-0.191078,0.191078,0.981575,-346.595904,243.293908)">
                    <g transform="matrix(200,0,0,200,1088.239938,1918.830737)">
                        <path d="M0.259,-0.7L0.388,-0.7C0.418,-0.7 0.448,-0.697 0.476,-0.69C0.505,-0.683 0.53,-0.673 0.553,-0.658C0.575,-0.643 0.593,-0.624 0.606,-0.6C0.619,-0.576 0.626,-0.546 0.626,-0.511C0.626,-0.483 0.62,-0.456 0.608,-0.428C0.597,-0.4 0.579,-0.376 0.555,-0.356C0.531,-0.337 0.5,-0.325 0.462,-0.321C0.483,-0.314 0.503,-0.302 0.521,-0.285C0.538,-0.268 0.553,-0.25 0.564,-0.233C0.565,-0.232 0.569,-0.226 0.576,-0.215C0.582,-0.204 0.591,-0.191 0.601,-0.175C0.612,-0.16 0.623,-0.144 0.634,-0.128C0.645,-0.112 0.655,-0.098 0.665,-0.086C0.679,-0.068 0.693,-0.053 0.705,-0.042C0.717,-0.031 0.73,-0.023 0.743,-0.018C0.756,-0.013 0.771,-0.01 0.789,-0.01L0.789,-0L0.691,-0C0.655,-0 0.622,-0.003 0.593,-0.01C0.563,-0.016 0.537,-0.027 0.515,-0.042C0.492,-0.057 0.473,-0.078 0.456,-0.104C0.451,-0.112 0.445,-0.122 0.439,-0.135C0.432,-0.147 0.426,-0.16 0.419,-0.174C0.412,-0.188 0.406,-0.201 0.399,-0.214C0.393,-0.227 0.388,-0.239 0.383,-0.25C0.379,-0.261 0.375,-0.269 0.373,-0.275C0.364,-0.296 0.354,-0.312 0.342,-0.323C0.33,-0.334 0.318,-0.34 0.305,-0.342L0.305,-0.352C0.307,-0.352 0.311,-0.352 0.317,-0.352C0.323,-0.352 0.329,-0.352 0.336,-0.352C0.354,-0.352 0.372,-0.356 0.389,-0.363C0.406,-0.37 0.421,-0.382 0.434,-0.399C0.447,-0.415 0.457,-0.438 0.462,-0.468C0.463,-0.474 0.464,-0.481 0.465,-0.489C0.466,-0.497 0.466,-0.506 0.466,-0.516C0.464,-0.564 0.452,-0.599 0.43,-0.621C0.408,-0.643 0.381,-0.655 0.348,-0.656C0.338,-0.656 0.328,-0.657 0.317,-0.656C0.306,-0.656 0.296,-0.656 0.288,-0.656L0.269,-0.656C0.269,-0.657 0.269,-0.66 0.267,-0.667C0.265,-0.675 0.259,-0.7 0.259,-0.7ZM0.272,-0.7L0.272,-0L0.122,-0L0.122,-0.7L0.272,-0.7ZM0.125,-0.073L0.125,-0L0.045,-0L0.045,-0.01L0.058,-0.01C0.075,-0.01 0.09,-0.016 0.102,-0.029C0.115,-0.041 0.121,-0.056 0.122,-0.073L0.125,-0.073ZM0.125,-0.627L0.122,-0.627C0.121,-0.644 0.115,-0.659 0.102,-0.671C0.09,-0.684 0.075,-0.69 0.058,-0.69L0.045,-0.69L0.045,-0.7L0.125,-0.7L0.125,-0.627ZM0.269,-0.073L0.272,-0.073C0.272,-0.056 0.279,-0.041 0.291,-0.029C0.304,-0.016 0.319,-0.01 0.336,-0.01L0.348,-0.01L0.348,-0L0.269,-0L0.269,-0.073Z" style="fill-rule:nonzero;"/>
                    </g>
                </g>
                <g transform="matrix(0.922538,-0.385906,0.385906,0.922538,-624.631909,640.576835)">
                    <g transform="matrix(200,0,0,200,1283.324455,1876.210924)">
                        <path d="M0.354,-0.72L0.68,-0.006L0.501,-0.006L0.293,-0.527L0.354,-0.72ZM0.139,-0.073C0.134,-0.06 0.133,-0.048 0.136,-0.039C0.139,-0.03 0.145,-0.023 0.153,-0.018C0.161,-0.013 0.169,-0.01 0.177,-0.01L0.186,-0.01L0.186,-0L-0.028,-0L-0.028,-0.01L-0.019,-0.01C-0.004,-0.01 0.012,-0.015 0.028,-0.025C0.045,-0.034 0.058,-0.05 0.069,-0.073L0.139,-0.073ZM0.354,-0.72L0.358,-0.598L0.11,-0.003L0.037,-0.003L0.296,-0.589C0.298,-0.593 0.301,-0.6 0.306,-0.611C0.311,-0.623 0.317,-0.635 0.322,-0.649C0.328,-0.663 0.333,-0.677 0.338,-0.69C0.342,-0.703 0.345,-0.713 0.345,-0.72L0.354,-0.72ZM0.459,-0.238L0.459,-0.196L0.165,-0.196L0.165,-0.238L0.459,-0.238ZM0.474,-0.073L0.649,-0.073C0.66,-0.05 0.674,-0.034 0.69,-0.025C0.706,-0.015 0.722,-0.01 0.737,-0.01L0.745,-0.01L0.745,-0L0.427,-0L0.427,-0.01L0.436,-0.01C0.449,-0.01 0.461,-0.015 0.471,-0.026C0.481,-0.037 0.482,-0.053 0.474,-0.073Z" style="fill-rule:nonzero;"/>
                    </g>
                </g>
                <g transform="matrix(0.80786,-0.589375,0.589375,0.80786,-779.206947,1206.644247)">
                    <g transform="matrix(200,0,0,200,1461.03885,1798.399594)">
                        <path d="M0.78,-0.714L0.788,-0.605L0.491,-0.09C0.491,-0.09 0.488,-0.085 0.481,-0.073C0.475,-0.061 0.468,-0.047 0.462,-0.03C0.456,-0.013 0.452,0.004 0.452,0.02L0.442,0.02L0.403,-0.067L0.78,-0.714ZM0.102,-0.073L0.102,-0L-0.009,-0L-0.009,-0.01L0.007,-0.01C0.025,-0.01 0.041,-0.015 0.055,-0.026C0.069,-0.037 0.077,-0.053 0.08,-0.073L0.102,-0.073ZM0.146,-0.057L0.146,-0.052C0.146,-0.041 0.15,-0.032 0.157,-0.022C0.165,-0.013 0.174,-0.009 0.185,-0.009L0.201,-0.009L0.201,-0L0.139,-0L0.139,-0.057L0.146,-0.057ZM0.163,-0.714L0.172,-0.714L0.207,-0.614L0.14,-0L0.071,-0L0.163,-0.714ZM0.172,-0.714L0.499,-0.177L0.442,0.02L0.146,-0.477L0.172,-0.714ZM0.789,-0.714L0.884,-0L0.723,-0L0.673,-0.46L0.78,-0.714L0.789,-0.714ZM0.853,-0.073L0.874,-0.073C0.878,-0.053 0.886,-0.037 0.9,-0.026C0.914,-0.015 0.93,-0.01 0.947,-0.01L0.963,-0.01L0.963,-0L0.853,-0L0.853,-0.073ZM0.717,-0.057L0.724,-0.057L0.724,-0L0.663,-0L0.663,-0.009L0.678,-0.009C0.689,-0.009 0.698,-0.013 0.706,-0.022C0.713,-0.032 0.717,-0.041 0.717,-0.052L0.717,-0.057Z" style="fill-rule:nonzero;"/>
                    </g>
                </g>
            </g>
            <g transform="matrix(1,0,0,0.904762,-2176,97.52381)">
                <path d="M2667.778,882.526C2644.877,819.477 2643.272,762.732 2666.24,718.763C2695.72,662.327 2761.936,634.115 2850.699,634.344C2891.912,634.45 2938.063,640.618 2987.538,652.638C3002.858,599.271 3021.101,552.012 3041.624,512.51C3085.827,427.433 3141.04,378.158 3200,378.158C3258.96,378.158 3314.173,427.433 3358.376,512.51C3378.899,552.012 3397.142,599.271 3412.462,652.638C3461.937,640.618 3508.088,634.45 3549.301,634.344C3638.064,634.115 3704.28,662.327 3733.76,718.763C3756.728,762.732 3755.123,819.477 3732.222,882.526L3714.268,882.526C3737.453,822.925 3740.954,769.377 3719.327,727.974C3692.29,676.215 3630.747,652.555 3549.34,652.765C3509.521,652.868 3465.025,658.771 3417.352,670.251C3434.424,733.854 3447.445,805.478 3455.401,882.526L3410.897,882.526C3383.206,861.789 3354.132,841.639 3323.833,822.305C3282.386,795.857 3240.887,772.363 3200,751.924C3159.113,772.363 3117.614,795.857 3076.167,822.305C3045.868,841.639 3016.794,861.789 2989.103,882.526L2944.599,882.526C2952.555,805.478 2965.576,733.854 2982.648,670.251C2934.975,658.771 2890.479,652.868 2850.66,652.765C2769.253,652.555 2707.71,676.215 2680.673,727.974C2659.046,769.377 2662.547,822.925 2685.732,882.526L2667.778,882.526ZM3732.222,1165.474C3755.123,1228.523 3756.728,1285.268 3733.76,1329.237C3704.28,1385.673 3638.064,1413.885 3549.301,1413.656C3508.088,1413.55 3461.937,1407.382 3412.462,1395.362C3397.142,1448.729 3378.899,1495.988 3358.376,1535.49C3314.173,1620.567 3258.96,1669.842 3200,1669.842C3141.04,1669.842 3085.827,1620.567 3041.624,1535.49C3021.101,1495.988 3002.858,1448.729 2987.538,1395.362C2938.063,1407.382 2891.912,1413.55 2850.699,1413.656C2761.936,1413.885 2695.72,1385.673 2666.24,1329.237C2643.272,1285.268 2644.877,1228.523 2667.778,1165.474L2685.732,1165.474C2662.547,1225.075 2659.046,1278.623 2680.673,1320.026C2707.71,1371.785 2769.253,1395.445 2850.66,1395.235C2890.479,1395.132 2934.975,1389.229 2982.648,1377.749C2965.576,1314.146 2952.555,1242.522 2944.599,1165.474L2989.103,1165.474C3016.794,1186.211 3045.868,1206.361 3076.167,1225.695C3117.614,1252.143 3159.113,1275.637 3200,1296.076C3240.887,1275.637 3282.386,1252.143 3323.833,1225.695C3354.132,1206.361 3383.206,1186.211 3410.897,1165.474L3455.401,1165.474C3447.445,1242.522 3434.424,1314.146 3417.352,1377.749C3465.025,1389.229 3509.521,1395.132 3549.34,1395.235C3630.747,1395.445 3692.29,1371.785 3719.327,1320.026C3740.954,1278.623 3737.453,1225.075 3714.268,1165.474L3732.222,1165.474ZM2961.482,881.222C2994.898,855.309 3030.443,830.212 3067.833,806.352C3105.224,782.493 3142.661,761.018 3179.673,741.99C3116.87,711.996 3055.79,689.325 2998.876,674.342C2982.159,736.312 2969.382,806.111 2961.482,881.222ZM3396.216,656.764C3381.375,605.391 3363.752,559.849 3343.923,521.684C3303.384,443.657 3254.074,396.579 3200,396.579C3145.926,396.579 3096.616,443.657 3056.077,521.684C3036.248,559.849 3018.625,605.391 3003.784,656.764C3065.436,673.092 3131.84,698.221 3200,731.763C3268.16,698.221 3334.564,673.092 3396.216,656.764ZM3438.518,881.222C3430.618,806.111 3417.841,736.312 3401.124,674.342C3344.21,689.325 3283.13,711.996 3220.327,741.99C3257.339,761.018 3294.776,782.493 3332.167,806.352C3369.557,830.212 3405.102,855.309 3438.518,881.222ZM2961.482,1166.778C2969.382,1241.889 2982.159,1311.688 2998.876,1373.658C3055.79,1358.675 3116.87,1336.004 3179.673,1306.01C3142.661,1286.982 3105.224,1265.507 3067.833,1241.648C3030.443,1217.788 2994.898,1192.691 2961.482,1166.778ZM3438.518,1166.778C3405.102,1192.691 3369.557,1217.788 3332.167,1241.648C3294.776,1265.507 3257.339,1286.982 3220.327,1306.01C3283.13,1336.004 3344.21,1358.675 3401.124,1373.658C3417.841,1311.688 3430.618,1241.889 3438.518,1166.778ZM3003.784,1391.236C3018.625,1442.609 3036.248,1488.151 3056.077,1526.316C3096.616,1604.343 3145.926,1651.421 3200,1651.421C3254.074,1651.421 3303.384,1604.343 3343.923,1526.316C3363.752,1488.151 3381.375,1442.609 3396.216,1391.236C3334.564,1374.908 3268.16,1349.779 3200,1316.237C3131.84,1349.779 3065.436,1374.908 3003.784,1391.236Z"/>
            </g>
            <g transform="matrix(1,0,0,1,0.166667,16.333161)">
                <g transform="matrix(1,0,0,1,-144.333333,128.000436)">
                    <path d="M1696.333,944L1696.333,992L1663,992L1663,768L1700.148,768L1856.333,992L1819.185,992L1696.333,816L1696.333,912L1743,912L1767,944L1696.333,944Z"/>
                </g>
                <g transform="matrix(1,0,0,1,-144.333333,128.000436)">
                    <rect x="512" y="768" width="160" height="32"/>
                </g>
                <g transform="matrix(1,0,0,1,-144.333333,128.000436)">
                    <rect x="512" y="864" width="160" height="32"/>
                </g>
                <g transform="matrix(1,0,0,1,-144.333333,128.000436)">
                    <rect x="512" y="960" width="160" height="32"/>
                </g>
                <g transform="matrix(1,0,0,1,-144.333333,128.000436)">
                    <rect x="1056.333" y="768" width="160" height="32"/>
                </g>
                <g transform="matrix(1,0,0,1,-144.333333,128.000436)">
                    <rect x="1056.333" y="864" width="160" height="32"/>
                </g>
                <g transform="matrix(1,0,0,1,-144.333333,128.000436)">
                    <rect x="1056.333" y="960" width="160" height="32"/>
                </g>
                <g transform="matrix(1,0,0,1,-144.333333,128.000436)">
                    <path d="M1402.518,992L1279.667,820.008L1279.667,992L1246.333,992L1246.333,768L1283.482,768L1406.333,939.992L1406.333,768L1439.667,768L1439.667,992L1402.518,992Z"/>
                </g>
                <g transform="matrix(1,0,0,1,-144.333333,128.000436)">
                    <path d="M1503.667,992L1470.333,992L1470.333,767.333L1567,767.333L1567,800.667L1503.667,800.666L1503.667,992Z"/>
                </g>
                <g transform="matrix(1,0,0,1,-144.333333,128.000436)">
                    <rect x="1598.333" y="768" width="33.333" height="224"/>
                </g>
                <g transform="matrix(1,0,0,1,-1680,863.999919)">
                    <path d="M2304,160L2288,160C2288,160 2224,160.458 2224,96C2224,31.552 2287.975,32 2288,32L2384,32L2384,64L2288,64C2286.792,64.015 2256,65.362 2256,96C2256,126.937 2287.376,127.995 2288,128L2304,128L2320,128L2336,128C2336,128 2400,127.542 2400,192C2400,256.448 2336.025,256 2336,256L2240,256L2240,224L2336,224C2337.208,223.985 2368,222.638 2368,192C2368,161.063 2336.624,160.005 2336,160L2320,160L2304,160Z"/>
                </g>
                <g transform="matrix(1,0,0,1,-1504,863.999919)">
                    <path d="M2304,160L2288,160C2288,160 2224,160.458 2224,96C2224,31.552 2287.975,32 2288,32L2384,32L2384,64L2288,64C2286.792,64.015 2256,65.362 2256,96C2256,126.937 2287.376,127.995 2288,128L2304,128L2320,128L2336,128C2336,128 2400,127.542 2400,192C2400,256.448 2336.025,256 2336,256L2240,256L2240,224L2336,224C2337.208,223.985 2368,222.638 2368,192C2368,161.063 2336.624,160.005 2336,160L2320,160L2304,160Z"/>
                </g>
            </g>
            <g transform="matrix(1,0,0,1,-2176,0)">
                <path d="M2504.046,512C2504.046,512 2336,707.383 2336,1024.334C2336,1341.284 2504.046,1536 2504.046,1536" style="fill:none;stroke:black;stroke-width:16.67px;"/>
            </g>
            <g transform="matrix(-1,0,0,1,4224.000064,0)">
                <path d="M2504.046,512C2504.046,512 2336,707.383 2336,1024.334C2336,1341.284 2504.046,1536 2504.046,1536" style="fill:none;stroke:black;stroke-width:16.67px;"/>
            </g>
        </g>
    </g>
</svg>
